<svg width="23.999999999999996" height="23.999999999999996" xmlns="http://www.w3.org/2000/svg">

 <g>
  <title>background</title>
  <rect fill="none" id="canvas_background" height="402" width="582" y="-1" x="-1"/>
 </g>
 <g>
  <title>Layer 1</title>
  <path fill="#ffffff" id="svg_1" d="m12.2,3.1l2.2,-2.2c0.2,-0.2 0.2,-0.5 0,-0.7c-0.2,-0.2 -0.5,-0.2 -0.7,0l-2.7,2.7l-2.8,-2.7c-0.2,-0.2 -0.5,-0.2 -0.7,0c-0.2,0.2 -0.2,0.5 0,0.7l2.2,2.2c-3.1,0.3 -4.7,2 -4.7,2.9c0,5.2 4,16 4,16c0.3,0.8 1,2 2,2s1.7,-1.2 2,-2c0,0 4,-10.8 4,-16c0,-0.9 -1.6,-2.6 -4.8,-2.9zm-0.4,17.4c-0.2,0.8 -0.4,1.5 -0.8,1.5c-0.3,0 -0.5,-0.6 -0.8,-1.5c0,0 -0.7,-1.6 -1.4,-4.5l0.7,0c0.3,0 0.5,-0.2 0.5,-0.5s-0.2,-0.5 -0.5,-0.5l-1,0c-0.4,-1.4 -0.7,-3.1 -1,-5l2,0c0.3,0 0.5,-0.2 0.5,-0.5s-0.2,-0.5 -0.5,-0.5l-2.1,0c-0.2,-0.8 -0.3,-1.6 -0.4,-2.5c0,0 1,-1.5 4,-1.5s4,1.5 4,1.5c0,0.2 0,0.3 -0.1,0.5l-2.4,0c-0.3,0 -0.5,0.2 -0.5,0.5s0.2,0.5 0.5,0.5l2.3,0c-0.3,1.8 -0.6,3.5 -0.9,5l-1.4,0c-0.3,0 -0.5,0.2 -0.5,0.5s0.2,0.5 0.5,0.5l1.2,0c-0.9,4.1 -1.9,6.5 -1.9,6.5z"/>
 </g>
</svg>