<svg width="512" height="512" xmlns="http://www.w3.org/2000/svg">

 <g>
  <title>background</title>
  <rect fill="none" id="canvas_background" height="402" width="582" y="-1" x="-1"/>
 </g>
 <g>
  <title>Layer 1</title>
  <path fill="#ffffff" id="svg_2" d="m364.217,192.345c-1.211,1.29 -3.266,1.343 -4.555,0.132c-1.292,-1.213 -1.356,-3.266 -0.132,-4.558l8.216,-8.743l-62.773,0c-1.119,0 -2.198,-0.58 -2.791,-1.605l-24.771,-42.904l-42.059,0l-28.51,28.497c-0.593,0.579 -1.409,0.948 -2.292,0.948l-85.067,0c-1.777,0 -3.239,-1.448 -3.239,-3.24c0,-1.789 1.462,-3.238 3.239,-3.238l83.725,0l28.509,-28.496c0.632,-0.633 1.448,-0.949 2.292,-0.949l45.247,0c1.289,0 2.396,0.738 2.923,1.818l24.651,42.717l60.916,0l-8.216,-8.744c-1.225,-1.289 -1.16,-3.344 0.132,-4.555c1.289,-1.238 3.344,-1.16 4.555,0.131l13.196,13.984l0.053,0.079c0.617,0.581 1,1.423 1,2.317c0,0.924 -0.383,1.766 -1,2.345l-0.053,0.053l-13.196,14.011zm-322.862,233.185c-1.792,0 -3.239,-1.476 -3.239,-3.239c0,-1.792 1.448,-3.239 3.239,-3.239l307.613,0c1.791,0 3.238,1.447 3.238,3.239c0,1.764 -1.447,3.239 -3.238,3.239l-307.613,0zm180.131,18.699c-1.777,0 -3.239,-1.447 -3.239,-3.239s1.462,-3.239 3.239,-3.239l212.867,0c1.79,0 3.239,1.447 3.239,3.239s-1.449,3.239 -3.239,3.239l-212.867,0zm234.647,0c-1.777,0 -3.227,-1.447 -3.227,-3.239s1.449,-3.239 3.227,-3.239l26.627,0c1.789,0 3.239,1.447 3.239,3.239s-1.45,3.239 -3.239,3.239l-26.627,0zm-426.904,-0.553c-1.779,0 -3.227,-1.476 -3.227,-3.239c0,-1.792 1.448,-3.239 3.227,-3.239l100.868,0c1.777,0 3.239,1.447 3.239,3.239c0,1.764 -1.462,3.239 -3.239,3.239l-100.868,0zm382.29,-35.108l0,-4.055l0,-0.079l0,-19.464l-0.053,0l-0.04,-18.33c0,-1.79 -1.462,-3.239 -3.24,-3.239c-1.777,0 -3.239,1.449 -3.239,3.239l0,18.33l-18.604,0l0,-18.33c0,-1.79 -1.45,-3.239 -3.242,-3.239c-1.777,0 -3.238,1.449 -3.238,3.239l0,18.33l-18.594,0l0,-18.33c0,-1.79 -1.462,-3.239 -3.239,-3.239c-1.792,0 -3.239,1.449 -3.239,3.239l0,18.33l-18.621,0l0,-18.33c0,-1.79 -1.45,-3.239 -3.228,-3.239c-1.79,0 -3.239,1.449 -3.239,3.239l0,18.33l-18.607,0l0,-18.33c0,-1.79 -1.447,-3.239 -3.239,-3.239c-1.79,0 -3.239,1.449 -3.239,3.239l0,18.33l-18.608,0l0,-18.33c0,-1.79 -1.462,-3.239 -3.239,-3.239s-3.239,1.449 -3.239,3.239l0,18.33l-18.605,0l0,-18.33c0,-1.79 -1.45,-3.239 -3.239,-3.239c-1.792,0 -3.241,1.449 -3.241,3.239l0,18.33l-18.593,0l0,-18.33c0,-1.79 -1.462,-3.239 -3.239,-3.239c-1.79,0 -3.239,1.449 -3.239,3.239l0,18.33l-18.62,0l0,-18.33c0,-1.79 -1.45,-3.239 -3.227,-3.239c-1.778,0 -3.239,1.449 -3.239,3.239l0,18.33l-18.61,0l0,-18.33c0,-1.79 -1.448,-3.239 -3.239,-3.239c-1.79,0 -3.239,1.449 -3.239,3.239l0,18.33l-18.605,0l0,-18.33c0,-1.79 -1.45,-3.239 -3.227,-3.239c-1.792,0 -3.239,1.449 -3.239,3.239l0,18.33l-18.62,0l0,-18.33c0,-1.79 -1.45,-3.239 -3.239,-3.239c-1.779,0 -3.227,1.449 -3.227,3.239l0,18.33l-39.257,0l0,-1.737l23.151,0c1.792,0 3.239,-1.449 3.239,-3.239c0,-1.766 -1.448,-3.241 -3.239,-3.241l-23.151,0l0,-18.593l23.151,0c1.792,0 3.239,-1.448 3.239,-3.24c0,-1.789 -1.448,-3.238 -3.239,-3.238l-23.151,0l0,-18.62l23.151,0c1.792,0 3.239,-1.449 3.239,-3.239c0,-1.766 -1.448,-3.213 -3.239,-3.213l-23.151,0l0,-18.621l23.151,0c1.792,0 3.239,-1.448 3.239,-3.24c0,-1.789 -1.448,-3.238 -3.239,-3.238l-23.151,0l0,-18.594l23.151,0c1.792,0 3.239,-1.475 3.239,-3.239c0,-1.792 -1.448,-3.239 -3.239,-3.239l-23.151,0l0,-18.619l23.151,0c1.792,0 3.239,-1.449 3.239,-3.24c0,-1.765 -1.448,-3.238 -3.239,-3.238l-23.151,0l0,-18.596l23.151,0c1.792,0 3.239,-1.447 3.239,-3.239c0,-1.79 -1.448,-3.239 -3.239,-3.239l-23.151,0l0,-18.594l23.151,0c1.792,0 3.239,-1.475 3.239,-3.238c0,-1.792 -1.448,-3.24 -3.239,-3.24l-23.151,0l0,-18.621l23.151,0c1.792,0 3.239,-1.447 3.239,-3.239c0,-1.79 -1.448,-3.239 -3.239,-3.239l-23.151,0l0,-18.597l23.151,0c1.792,0 3.239,-1.474 3.239,-3.238c0,-1.792 -1.448,-3.24 -3.239,-3.24l-23.151,0l0,-18.619l23.151,0c1.792,0 3.239,-1.449 3.239,-3.239c0,-1.765 -1.448,-3.239 -3.239,-3.239l-23.151,0l0,-18.596l23.151,0c1.792,0 3.239,-1.447 3.239,-3.238c0,-1.79 -1.448,-3.24 -3.239,-3.24l-23.151,0l0,-27.523l0,-0.078l0,-5.479l-23.598,0l0,317.199l0,23.598l23.598,0l321.731,0zm7.585,-47.695c-1.213,1.291 -3.268,1.37 -4.558,0.131c-1.29,-1.211 -1.368,-3.266 -0.132,-4.555l8.218,-8.744l-61.629,0c-1.131,0 -2.213,-0.579 -2.804,-1.607l-32.815,-56.861l0,56.335c0,1.792 -1.449,3.239 -3.227,3.239l-95.393,0c-0.816,0 -1.658,-0.316 -2.277,-0.947l-40.361,-40.35l-25.942,44.931c-0.526,1.081 -1.632,1.818 -2.897,1.818l-34.895,0c-1.792,0 -3.241,-1.45 -3.241,-3.239c0,-1.792 1.45,-3.239 3.241,-3.239l33.026,0l25.993,-45.01l-25.967,-25.942l-33.474,0c-1.79,0 -3.239,-1.447 -3.239,-3.238c0,-1.792 1.449,-3.24 3.239,-3.24l34.817,0c0.895,0 1.713,0.369 2.292,0.947l25.677,25.68l41.638,-72.109c0.593,-1.029 1.687,-1.607 2.792,-1.607l135.319,-0.027c1.264,0 2.369,0.738 2.897,1.818l27.337,47.354l27.706,0l-8.218,-8.744c-1.225,-1.291 -1.158,-3.344 0.132,-4.557c1.292,-1.211 3.345,-1.158 4.569,0.132l13.182,14.012l0.053,0.053c0.632,0.579 1.015,1.421 1.015,2.345c0,0.921 -0.383,1.736 -1.015,2.342l-0.053,0.053l-13.182,13.985c-1.225,1.292 -3.277,1.37 -4.569,0.132c-1.29,-1.211 -1.356,-3.266 -0.132,-4.555l8.218,-8.744l-29.562,0c-1.12,0 -2.201,-0.58 -2.793,-1.607l-27.456,-47.538l-131.591,0l-41.558,71.978l40.624,40.639l90.808,0l0,-65.131c0,-1.79 1.448,-3.24 3.24,-3.24c1.291,0 2.423,0.764 2.923,1.871l37.768,65.421l59.784,0l-8.218,-8.744c-1.236,-1.292 -1.158,-3.345 0.132,-4.558c1.29,-1.21 3.345,-1.158 4.558,0.133l13.193,14.012l0.053,0.052c0.619,0.579 1,1.421 1,2.345c0,0.921 -0.381,1.737 -1,2.342l-0.053,0.053l-13.193,13.98z"/>
 </g>
</svg>